<?xml version="1.0" encoding="UTF-8"?>
<svg id="Layer_1" data-name="Layer 1" xmlns="http://www.w3.org/2000/svg" xmlns:xlink="http://www.w3.org/1999/xlink" viewBox="0 0 322.89 219.8">
  <defs>
    <style>
      .cls-1 {
        stroke: #25408f;
      }

      .cls-1, .cls-2 {
        fill: none;
      }

      .cls-2 {
        stroke-width: 0px;
      }

      .cls-3 {
        clip-path: url(#clippath);
      }
    </style>
    <clipPath id="clippath">
      <rect class="cls-2" width="322.89" height="219.8"/>
    </clipPath>
  </defs>
  <g class="cls-3">
    <path class="cls-1" d="M.48,11.44s.17.49.5,1.38c2.96,8.03,18.99,48.59,43.01,57.2,26.68,9.57,34.8,9.57,72.79,40.89,37.99,31.32,74.53,31.32,98.6,33.93,24.07,2.61,46.79,27.09,67.96,46.82,21.17,19.72,28.86,26.1,28.28,27.99"/>
    <path class="cls-1" d="M14.11.17s16.82,49.01,43.5,58.58c26.68,9.57,34.8,9.57,72.79,40.89,37.99,31.32,74.53,31.32,98.6,33.93,24.07,2.61,46.5,27.05,67.67,46.78,21.17,19.72,26.1,24.36,25.67,27.7"/>
  </g>
</svg>